<svg width="271" height="97" viewBox="0 0 271 97" fill="none" xmlns="http://www.w3.org/2000/svg">
<path d="M244.33 32.6364C243.936 31.0303 243.315 29.6212 242.466 28.4091C241.618 27.1667 240.557 26.1212 239.284 25.2727C238.042 24.3939 236.587 23.7424 234.921 23.3182C233.284 22.8636 231.481 22.6364 229.512 22.6364C225.269 22.6364 221.648 23.6515 218.648 25.6818C215.678 27.7121 213.406 30.6364 211.83 34.4545C210.284 38.2727 209.512 42.8788 209.512 48.2727C209.512 53.7273 210.254 58.3939 211.739 62.2727C213.224 66.1515 215.436 69.1212 218.375 71.1818C221.315 73.2424 224.966 74.2727 229.33 74.2727C233.178 74.2727 236.375 73.7121 238.921 72.5909C241.497 71.4697 243.421 69.8788 244.694 67.8182C245.966 65.7576 246.603 63.3333 246.603 60.5454L250.966 61H229.694V43H270.966V55.9091C270.966 64.3939 269.163 71.6515 265.557 77.6818C261.981 83.6818 257.042 88.2879 250.739 91.5C244.466 94.6818 237.269 96.2727 229.148 96.2727C220.087 96.2727 212.133 94.3485 205.284 90.5C198.436 86.6515 193.087 81.1667 189.239 74.0454C185.421 66.9242 183.512 58.4545 183.512 48.6364C183.512 40.9394 184.678 34.1212 187.012 28.1818C189.375 22.2424 192.648 17.2273 196.83 13.1364C201.012 9.01514 205.845 5.90908 211.33 3.81817C216.815 1.69696 222.694 0.636353 228.966 0.636353C234.481 0.636353 239.603 1.42423 244.33 2.99999C249.087 4.54544 253.284 6.75756 256.921 9.63635C260.587 12.4848 263.542 15.8636 265.784 19.7727C268.027 23.6818 269.391 27.9697 269.875 32.6364H244.33Z" fill="black"/>
<path d="M113.33 1.90909L132.421 67.5455H133.148L152.239 1.90909H180.784L150.057 95H115.511L84.7842 1.90909H113.33Z" fill="black"/>
<path d="M52.8072 31C52.5648 27.9697 51.4284 25.6061 49.3981 23.9091C47.3981 22.2121 44.3526 21.3636 40.2617 21.3636C37.6557 21.3636 35.5193 21.6818 33.8526 22.3182C32.2163 22.9242 31.0041 23.7576 30.2163 24.8182C29.4284 25.8788 29.0193 27.0909 28.989 28.4545C28.9284 29.5757 29.1254 30.5909 29.5799 31.5C30.0648 32.3788 30.8223 33.1818 31.8526 33.9091C32.8829 34.6061 34.2011 35.2424 35.8072 35.8182C37.4132 36.3939 39.3223 36.9091 41.5344 37.3636L49.1708 39C54.3223 40.0909 58.7314 41.5303 62.3981 43.3182C66.0647 45.106 69.0648 47.2121 71.3981 49.6364C73.7314 52.0303 75.4435 54.7273 76.5345 57.7273C77.6557 60.7273 78.2314 64 78.2617 67.5454C78.2314 73.6667 76.7011 78.8485 73.6708 83.0909C70.6405 87.3333 66.3072 90.5606 60.6708 92.7727C55.0647 94.9848 48.3223 96.0909 40.4435 96.0909C32.3526 96.0909 25.292 94.8939 19.2617 92.5C13.2617 90.1061 8.59505 86.4242 5.26172 81.4545C1.95869 76.4545 0.292022 70.0606 0.261719 62.2727H24.2617C24.4132 65.1212 25.1254 67.5151 26.3981 69.4545C27.6708 71.3939 29.4587 72.8636 31.7617 73.8636C34.0951 74.8636 36.8678 75.3636 40.0799 75.3636C42.7769 75.3636 45.0344 75.0303 46.8526 74.3636C48.6708 73.697 50.0496 72.7727 50.989 71.5909C51.9284 70.4091 52.4132 69.0606 52.4435 67.5454C52.4132 66.1212 51.9435 64.8788 51.0344 63.8182C50.1557 62.7273 48.7011 61.7576 46.6708 60.9091C44.6405 60.0303 41.8981 59.2121 38.4435 58.4545L29.1708 56.4545C20.9284 54.6667 14.4284 51.6818 9.67081 47.5C4.94354 43.2879 2.59505 37.5454 2.62536 30.2727C2.59505 24.3636 4.17081 19.197 7.35263 14.7727C10.5647 10.3182 15.0041 6.84847 20.6708 4.36362C26.3678 1.87878 32.8981 0.636353 40.2617 0.636353C47.7769 0.636353 54.2769 1.89393 59.7617 4.40908C65.2466 6.92423 69.4738 10.4697 72.4435 15.0454C75.4435 19.5909 76.9587 24.9091 76.989 31H52.8072Z" fill="black"/>
</svg>
